<?xml version="1.0" encoding="UTF-8" standalone="no"?>
<!-- Created with Inkscape (http://www.inkscape.org/) -->

<svg
   xmlns:dc="http://purl.org/dc/elements/1.1/"
   xmlns:cc="http://creativecommons.org/ns#"
   xmlns:rdf="http://www.w3.org/1999/02/22-rdf-syntax-ns#"
   xmlns:svg="http://www.w3.org/2000/svg"
   xmlns="http://www.w3.org/2000/svg"
   xmlns:sodipodi="http://sodipodi.sourceforge.net/DTD/sodipodi-0.dtd"
   xmlns:inkscape="http://www.inkscape.org/namespaces/inkscape"
   version="1.1"
   width="750.03125"
   height="453.60303"
   id="svg2"
   inkscape:version="0.48.4 r9939"
   sodipodi:docname="buenzli.svg">
  <sodipodi:namedview
     pagecolor="#ffffff"
     bordercolor="#666666"
     borderopacity="1"
     objecttolerance="10"
     gridtolerance="10"
     guidetolerance="10"
     inkscape:pageopacity="0"
     inkscape:pageshadow="2"
     inkscape:window-width="640"
     inkscape:window-height="480"
     id="namedview7"
     showgrid="false"
     fit-margin-top="0"
     fit-margin-left="0"
     fit-margin-right="0"
     fit-margin-bottom="0"
     inkscape:zoom="0.22425739"
     inkscape:cx="336.90059"
     inkscape:cy="-32.403349"
     inkscape:window-x="0"
     inkscape:window-y="27"
     inkscape:window-maximized="0"
     inkscape:current-layer="svg2" />
  <defs
     id="defs4" />
  <metadata
     id="metadata7">
    <rdf:RDF>
      <cc:Work
         rdf:about="">
        <dc:format>image/svg+xml</dc:format>
        <dc:type
           rdf:resource="http://purl.org/dc/dcmitype/StillImage" />
        <dc:title />
      </cc:Work>
    </rdf:RDF>
  </metadata>
  <g
     id="layer1"
     transform="translate(361.71875,227.375)">
    <path
       d="m 288.48578,-226.7498 -43.78125,16 0,70 c 0,0 -452.44413,-5.59531 -461.28125,-0.15625 0.91074,-3.42328 6.67952,-42.40351 4.1875,-71 -2.25987,-25.93239 -42.90625,-7.40625 -42.90625,-7.40625 l -105.71875,201.437494 24.3125,9.9999996 -2.875,31.4375004 172.875,-7.15625 c 0,0 -7.14732,177.129466 -5.71875,182.843756 1.42857,5.71428 30,-1.40625 30,-1.40625 l 0,25.71875 c 0,7.14286 298.5625,-5.71875 298.5625,-5.71875 l 0,-20 21.4375,0 4.28125,-182.875006 180.0625,-0.96875 4.5625,-29.78125 21.09375,-3.53125 -99.09375,-207.437494 z m -540.90625,103.15625 2.84375,32.843746 74.28125,2.875 1.4375,52.843748 -131.4375,0 52.875,-88.562494 z m 518.5625,1.4375 51.4375,87.124994 -138.59375,-5.71875 2.875,-45.687498 77.125,-5.71875 7.15625,-29.999996 z m -391.15625,33.718746 51.437504,0 0,52.843748 -51.437504,0 0,-52.843748 z m 100.000004,0 51.437499,0 0,52.843748 -51.437499,0 0,-52.843748 z m 103.999999,0 51.437497,0 0,52.843748 -51.437497,0 0,-52.843748 z m 47.156247,103.406248 -4.28125,157.156256 -248.5625,0 -1.4375,-154.281256 51.437504,2.84375 1.40625,68.5625 48.59375,4.3125 1.40625,-71.4375 49.999999,-4.28125 -2.84375,77.125 48.5625,-4.28125 7.15625,-72.84375 48.562497,-2.875 z"
       id="path2996"
       style="fill:#280b0b;stroke:#000000;stroke-width:1px;stroke-linecap:butt;stroke-linejoin:miter;stroke-opacity:1"
       inkscape:connector-curvature="0" />
  </g>
</svg>
